<?xml version="1.0" encoding="UTF-8"?>
<svg xmlns="http://www.w3.org/2000/svg" width="876" height="200" viewBox="0 0 876 200" fill="none">
  <path d="M316 120V1.875H334.786V24.6094C339.248 10.3125 352.399 0 370.481 0C389.972 0 405.236 8.90624 409.462 25.0781C413.924 11.0156 429.658 0 447.74 0C473.336 0 488.835 17.1094 488.835 45.7031V120H470.049V50.625C470.049 30.4688 459.951 16.6406 443.278 16.6406C423.552 16.6406 411.811 30.4688 411.811 50.625V120H393.024V50.625C393.024 30.4688 382.927 16.6406 366.489 16.6406C346.528 16.6406 334.786 30.4688 334.786 50.625V120H316Z" fill="#1E313A" style="fill:#1E313A;fill:color(display-p3 0.1176 0.1922 0.2275);fill-opacity:1;"></path>
  <path d="M515.871 120V1.875H534.658V120H515.871Z" fill="#1E313A" style="fill:#1E313A;fill:color(display-p3 0.1176 0.1922 0.2275);fill-opacity:1;"></path>
  <path d="M738.562 18.5156H755V1.875H739.971C722.593 1.875 712.73 9.60938 707.799 25.7813V1.875H689.013V120H707.799V67.9688C707.799 40.0781 714.609 18.5156 738.562 18.5156Z" fill="#1E313A" style="fill:#1E313A;fill:color(display-p3 0.1176 0.1922 0.2275);fill-opacity:1;"></path>
  <path d="M561 1.875V120H579.786V1.875H561Z" fill="#1E313A" style="fill:#1E313A;fill:color(display-p3 0.1176 0.1922 0.2275);fill-opacity:1;"></path>
  <path d="M641.842 2H666L610.612 61L666 120H641.842L586 61L641.842 2Z" fill="#1E313A" style="fill:#1E313A;fill:color(display-p3 0.1176 0.1922 0.2275);fill-opacity:1;"></path>
  <path fill-rule="evenodd" clip-rule="evenodd" d="M875 60C875 93.1371 848.137 120 815 120C781.863 120 755 93.1371 755 60C755 26.8629 781.863 0 815 0C848.137 0 875 26.8629 875 60ZM856.21 60C856.21 82.7597 837.76 101.21 815 101.21C792.24 101.21 773.79 82.7597 773.79 60C773.79 37.2403 792.24 18.79 815 18.79C837.76 18.79 856.21 37.2403 856.21 60Z" fill="#1E313A" style="fill:#1E313A;fill:color(display-p3 0.1176 0.1922 0.2275);fill-opacity:1;"></path>
  <path fill-rule="evenodd" clip-rule="evenodd" d="M40 0H0V120H40V0ZM168 60C168 93.1371 141.137 120 108 120C74.8629 120 48 93.1371 48 60C48 26.8629 74.8629 0 108 0C141.137 0 168 26.8629 168 60ZM236 120C269.137 120 296 93.1371 296 60C296 26.8629 269.137 0 236 0C202.863 0 176 26.8629 176 60C176 93.1371 202.863 120 236 120ZM272 77.324L262.526 68C247.876 82.4186 224.124 82.4186 209.474 68L200 77.324C219.882 96.892 252.118 96.892 272 77.324Z" fill="#FAC64F" style="fill:#FAC64F;fill:color(display-p3 0.9804 0.7765 0.3098);fill-opacity:1;"></path>
  <path d="M327.171 192.05C323.691 192.05 320.976 191.22 319.024 189.562C317.073 187.903 316.065 185.74 316 183.074H320.098C320.195 184.765 320.797 186.114 321.903 187.123C323.008 188.131 324.764 188.635 327.171 188.635C329.35 188.635 330.878 188.245 331.756 187.464C332.634 186.651 333.074 185.675 333.074 184.537C333.074 183.594 332.813 182.846 332.293 182.293C331.773 181.74 331.139 181.334 330.391 181.074C329.675 180.814 328.683 180.553 327.415 180.293L326.439 180.098C324.455 179.643 322.829 179.187 321.561 178.732C320.325 178.277 319.252 177.578 318.342 176.635C317.431 175.659 316.976 174.374 316.976 172.781C316.976 170.667 317.772 168.976 319.366 167.708C320.992 166.439 323.22 165.805 326.049 165.805C329.138 165.805 331.545 166.537 333.269 168C335.025 169.464 336 171.334 336.196 173.61H332.098C331.838 172.342 331.285 171.301 330.439 170.488C329.594 169.643 328.147 169.22 326.098 169.22C324.407 169.22 323.138 169.529 322.293 170.147C321.48 170.765 321.073 171.594 321.073 172.634C321.073 173.415 321.301 174.049 321.756 174.537C322.244 174.992 322.846 175.35 323.561 175.61C324.277 175.838 325.268 176.082 326.537 176.342C326.797 176.374 327.187 176.456 327.708 176.586C329.659 177.041 331.269 177.513 332.537 178C333.838 178.488 334.927 179.253 335.805 180.293C336.716 181.301 337.171 182.667 337.171 184.391C337.171 186.765 336.293 188.635 334.537 190.001C332.781 191.367 330.325 192.05 327.171 192.05Z" fill="#1E313A" style="fill:#1E313A;fill:color(display-p3 0.1176 0.1922 0.2275);fill-opacity:1;"></path>
  <path d="M352.904 192.05C349.489 192.05 346.888 190.749 345.099 188.147H345.001V200.001H341.099V166.488H345.001V169.561H345.099C347.018 167.057 349.619 165.805 352.904 165.805C354.985 165.805 356.872 166.342 358.563 167.415C360.286 168.456 361.636 169.968 362.611 171.952C363.62 173.935 364.124 176.261 364.124 178.927C364.124 181.594 363.62 183.919 362.611 185.903C361.636 187.887 360.286 189.415 358.563 190.489C356.872 191.529 354.985 192.05 352.904 192.05ZM345.001 178.927C345.001 181.854 345.668 184.212 347.001 186.001C348.367 187.757 350.205 188.635 352.514 188.635C354.14 188.635 355.522 188.18 356.66 187.269C357.798 186.358 358.644 185.171 359.197 183.708C359.75 182.212 360.026 180.618 360.026 178.927C360.026 177.236 359.75 175.659 359.197 174.195C358.644 172.7 357.798 171.496 356.66 170.586C355.522 169.675 354.14 169.22 352.514 169.22C350.205 169.22 348.367 170.114 347.001 171.903C345.668 173.659 345.001 176 345.001 178.927Z" fill="#1E313A" style="fill:#1E313A;fill:color(display-p3 0.1176 0.1922 0.2275);fill-opacity:1;"></path>
  <path d="M379.224 192.098C376.687 192.098 374.508 191.529 372.687 190.391C370.866 189.253 369.484 187.692 368.541 185.708C367.598 183.692 367.126 181.415 367.126 178.879C367.126 176.244 367.614 173.935 368.589 171.952C369.598 169.968 371.012 168.439 372.833 167.366C374.655 166.293 376.785 165.756 379.224 165.756C381.598 165.756 383.647 166.277 385.37 167.317C387.126 168.325 388.46 169.756 389.37 171.61C390.281 173.431 390.736 175.561 390.736 178C390.736 179.041 390.72 179.692 390.688 179.952H371.224C371.289 182.358 372.004 184.423 373.37 186.147C374.736 187.871 376.703 188.732 379.273 188.732C381.419 188.732 383.078 188.196 384.248 187.123C385.419 186.049 386.151 184.911 386.444 183.708H390.395C389.712 186.212 388.427 188.245 386.541 189.806C384.687 191.334 382.248 192.098 379.224 192.098ZM386.59 176.537C386.59 175.171 386.281 173.919 385.663 172.781C385.045 171.643 384.151 170.748 382.98 170.098C381.842 169.447 380.525 169.122 379.029 169.122C376.882 169.122 375.077 169.821 373.614 171.22C372.151 172.586 371.354 174.358 371.224 176.537H386.59Z" fill="#1E313A" style="fill:#1E313A;fill:color(display-p3 0.1176 0.1922 0.2275);fill-opacity:1;"></path>
  <path d="M405.708 192.05C403.302 192.05 401.188 191.497 399.367 190.391C397.546 189.285 396.131 187.74 395.123 185.757C394.147 183.773 393.659 181.496 393.659 178.927C393.659 176.358 394.147 174.082 395.123 172.098C396.131 170.114 397.546 168.569 399.367 167.464C401.188 166.358 403.302 165.805 405.708 165.805C407.725 165.805 409.513 166.228 411.074 167.073C412.668 167.886 413.936 169.025 414.879 170.488C415.855 171.952 416.44 173.61 416.635 175.464H412.538C412.408 173.805 411.79 172.358 410.684 171.122C409.611 169.854 407.952 169.22 405.708 169.22C402.977 169.22 400.96 170.179 399.659 172.098C398.391 173.984 397.757 176.261 397.757 178.927C397.757 181.594 398.391 183.887 399.659 185.805C400.96 187.692 402.977 188.635 405.708 188.635C407.985 188.635 409.66 188.001 410.733 186.732C411.806 185.464 412.408 183.952 412.538 182.196H416.635C416.538 184.082 416.001 185.773 415.026 187.269C414.05 188.765 412.749 189.936 411.123 190.781C409.53 191.627 407.725 192.05 405.708 192.05Z" fill="#1E313A" style="fill:#1E313A;fill:color(display-p3 0.1176 0.1922 0.2275);fill-opacity:1;"></path>
  <path d="M420.702 166.488H424.605V191.367H420.702V166.488ZM420.312 156.976H424.995V161.659H420.312V156.976Z" fill="#1E313A" style="fill:#1E313A;fill:color(display-p3 0.1176 0.1922 0.2275);fill-opacity:1;"></path>
  <path d="M437.156 192.05C434.652 192.05 432.652 191.399 431.156 190.098C429.692 188.797 428.96 187.09 428.96 184.976C428.96 183.155 429.383 181.692 430.229 180.586C431.074 179.48 432.245 178.635 433.741 178.049C435.237 177.464 437.188 176.96 439.595 176.537C441.221 176.244 442.44 175.968 443.253 175.708C444.099 175.448 444.733 175.106 445.156 174.683C445.579 174.228 445.79 173.61 445.79 172.83C445.79 170.391 444.066 169.171 440.619 169.171C439.058 169.171 437.822 169.334 436.912 169.659C436.034 169.984 435.4 170.521 435.009 171.269C434.619 171.984 434.375 172.96 434.278 174.195H430.18C430.31 171.626 431.237 169.578 432.96 168.049C434.684 166.521 437.286 165.756 440.766 165.756C443.367 165.756 445.481 166.39 447.107 167.659C448.766 168.927 449.595 170.976 449.595 173.805V185.757C449.595 186.765 449.693 187.513 449.888 188.001C450.083 188.456 450.408 188.684 450.863 188.684L451.449 188.635V191.367C450.733 191.529 450.099 191.61 449.546 191.61C448.408 191.61 447.53 191.334 446.912 190.781C446.327 190.196 445.969 189.171 445.839 187.708H445.741C444.896 189.106 443.757 190.18 442.327 190.928C440.896 191.676 439.172 192.05 437.156 192.05ZM433.058 184.781C433.058 186.049 433.416 187.009 434.131 187.659C434.847 188.31 435.985 188.635 437.546 188.635C440.018 188.635 442.001 188.066 443.497 186.927C445.026 185.757 445.79 184.033 445.79 181.757V177.805C445.205 178.456 443.253 179.106 439.936 179.757C437.432 180.277 435.66 180.895 434.619 181.61C433.578 182.326 433.058 183.383 433.058 184.781Z" fill="#1E313A" style="fill:#1E313A;fill:color(display-p3 0.1176 0.1922 0.2275);fill-opacity:1;"></path>
  <path d="M455.716 156.488H459.619V191.367H455.716V156.488Z" fill="#1E313A" style="fill:#1E313A;fill:color(display-p3 0.1176 0.1922 0.2275);fill-opacity:1;"></path>
  <path d="M465.292 166.488H469.194V191.367H465.292V166.488ZM464.901 156.976H469.584V161.659H464.901V156.976Z" fill="#1E313A" style="fill:#1E313A;fill:color(display-p3 0.1176 0.1922 0.2275);fill-opacity:1;"></path>
  <path d="M472.964 188.44L487.013 170V169.903H473.794V166.488H492.526V168.83L478.038 187.854V187.952H493.062V191.367H472.964V188.44Z" fill="#1E313A" style="fill:#1E313A;fill:color(display-p3 0.1176 0.1922 0.2275);fill-opacity:1;"></path>
  <path d="M507.181 192.098C504.677 192.098 502.498 191.545 500.644 190.44C498.823 189.334 497.425 187.789 496.449 185.805C495.474 183.789 494.986 181.496 494.986 178.927C494.986 176.358 495.474 174.082 496.449 172.098C497.425 170.082 498.823 168.521 500.644 167.415C502.498 166.309 504.677 165.756 507.181 165.756C509.653 165.756 511.799 166.309 513.62 167.415C515.474 168.521 516.889 170.082 517.864 172.098C518.84 174.082 519.328 176.358 519.328 178.927C519.328 181.496 518.84 183.789 517.864 185.805C516.889 187.789 515.474 189.334 513.62 190.44C511.799 191.545 509.653 192.098 507.181 192.098ZM499.083 178.927C499.083 181.757 499.766 184.098 501.132 185.952C502.498 187.773 504.514 188.684 507.181 188.684C509.815 188.684 511.815 187.773 513.181 185.952C514.547 184.098 515.23 181.757 515.23 178.927C515.23 176.098 514.547 173.773 513.181 171.952C511.815 170.098 509.815 169.171 507.181 169.171C504.514 169.171 502.498 170.098 501.132 171.952C499.766 173.773 499.083 176.098 499.083 178.927Z" fill="#1E313A" style="fill:#1E313A;fill:color(display-p3 0.1176 0.1922 0.2275);fill-opacity:1;"></path>
  <path d="M520.448 166.488H524.741L531.668 187.464H531.717L538.546 166.488H542.741L533.814 191.367H529.375L520.448 166.488Z" fill="#1E313A" style="fill:#1E313A;fill:color(display-p3 0.1176 0.1922 0.2275);fill-opacity:1;"></path>
  <path d="M552.011 192.05C549.507 192.05 547.507 191.399 546.011 190.098C544.548 188.797 543.816 187.09 543.816 184.976C543.816 183.155 544.239 181.692 545.084 180.586C545.93 179.48 547.101 178.635 548.597 178.049C550.093 177.464 552.044 176.96 554.45 176.537C556.076 176.244 557.296 175.968 558.109 175.708C558.955 175.448 559.589 175.106 560.011 174.683C560.434 174.228 560.646 173.61 560.646 172.83C560.646 170.391 558.922 169.171 555.475 169.171C553.914 169.171 552.678 169.334 551.767 169.659C550.889 169.984 550.255 170.521 549.865 171.269C549.475 171.984 549.231 172.96 549.133 174.195H545.036C545.166 171.626 546.092 169.578 547.816 168.049C549.54 166.521 552.141 165.756 555.621 165.756C558.223 165.756 560.337 166.39 561.963 167.659C563.621 168.927 564.451 170.976 564.451 173.805V185.757C564.451 186.765 564.548 187.513 564.743 188.001C564.938 188.456 565.264 188.684 565.719 188.684L566.304 188.635V191.367C565.589 191.529 564.955 191.61 564.402 191.61C563.264 191.61 562.385 191.334 561.768 190.781C561.182 190.196 560.824 189.171 560.694 187.708H560.597C559.751 189.106 558.613 190.18 557.182 190.928C555.751 191.676 554.028 192.05 552.011 192.05ZM547.914 184.781C547.914 186.049 548.271 187.009 548.987 187.659C549.702 188.31 550.841 188.635 552.402 188.635C554.873 188.635 556.857 188.066 558.353 186.927C559.881 185.757 560.646 184.033 560.646 181.757V177.805C560.06 178.456 558.109 179.106 554.792 179.757C552.288 180.277 550.515 180.895 549.475 181.61C548.434 182.326 547.914 183.383 547.914 184.781Z" fill="#1E313A" style="fill:#1E313A;fill:color(display-p3 0.1176 0.1922 0.2275);fill-opacity:1;"></path>
  <path d="M587.206 174.976C587.206 173.252 586.767 171.87 585.889 170.83C585.011 169.756 583.645 169.22 581.792 169.22C579.613 169.22 577.84 169.838 576.474 171.073C575.141 172.309 574.474 173.903 574.474 175.854V191.367H570.572V166.488H574.474V169.464H574.572C575.352 168.423 576.426 167.561 577.792 166.878C579.157 166.163 580.816 165.805 582.767 165.805C585.206 165.805 587.206 166.504 588.767 167.903C590.328 169.269 591.109 171.301 591.109 174V191.367H587.206V174.976Z" fill="#1E313A" style="fill:#1E313A;fill:color(display-p3 0.1176 0.1922 0.2275);fill-opacity:1;"></path>
  <path d="M603.461 192.05C600.956 192.05 598.956 191.399 597.46 190.098C595.997 188.797 595.265 187.09 595.265 184.976C595.265 183.155 595.688 181.692 596.534 180.586C597.379 179.48 598.55 178.635 600.046 178.049C601.542 177.464 603.493 176.96 605.9 176.537C607.526 176.244 608.745 175.968 609.558 175.708C610.404 175.448 611.038 175.106 611.461 174.683C611.883 174.228 612.095 173.61 612.095 172.83C612.095 170.391 610.371 169.171 606.924 169.171C605.363 169.171 604.127 169.334 603.217 169.659C602.339 169.984 601.704 170.521 601.314 171.269C600.924 171.984 600.68 172.96 600.582 174.195H596.485C596.615 171.626 597.542 169.578 599.265 168.049C600.989 166.521 603.591 165.756 607.07 165.756C609.672 165.756 611.786 166.39 613.412 167.659C615.07 168.927 615.9 170.976 615.9 173.805V185.757C615.9 186.765 615.997 187.513 616.193 188.001C616.388 188.456 616.713 188.684 617.168 188.684L617.753 188.635V191.367C617.038 191.529 616.404 191.61 615.851 191.61C614.713 191.61 613.835 191.334 613.217 190.781C612.631 190.196 612.274 189.171 612.144 187.708H612.046C611.201 189.106 610.062 190.18 608.631 190.928C607.2 191.676 605.477 192.05 603.461 192.05ZM599.363 184.781C599.363 186.049 599.721 187.009 600.436 187.659C601.151 188.31 602.29 188.635 603.851 188.635C606.322 188.635 608.306 188.066 609.802 186.927C611.331 185.757 612.095 184.033 612.095 181.757V177.805C611.509 178.456 609.558 179.106 606.241 179.757C603.737 180.277 601.965 180.895 600.924 181.61C599.883 182.326 599.363 183.383 599.363 184.781ZM607.802 156H612.436L607.997 162.537H604.826L607.802 156Z" fill="#1E313A" style="fill:#1E313A;fill:color(display-p3 0.1176 0.1922 0.2275);fill-opacity:1;"></path>
  <path d="M630.551 188.44L644.6 170V169.903H631.381V166.488H650.113V168.83L635.625 187.854V187.952H650.649V191.367H630.551V188.44Z" fill="#1E313A" style="fill:#1E313A;fill:color(display-p3 0.1176 0.1922 0.2275);fill-opacity:1;"></path>
  <path d="M662.609 192.05C660.17 192.05 658.17 191.367 656.609 190.001C655.048 188.602 654.268 186.553 654.268 183.854V166.488H658.17V182.879C658.17 184.602 658.609 186.001 659.487 187.074C660.365 188.114 661.731 188.635 663.585 188.635C665.764 188.635 667.52 188.017 668.853 186.781C670.219 185.545 670.902 183.952 670.902 182.001V166.488H674.805V191.367H670.902V188.391H670.805C670.024 189.432 668.951 190.31 667.585 191.025C666.219 191.708 664.56 192.05 662.609 192.05Z" fill="#1E313A" style="fill:#1E313A;fill:color(display-p3 0.1176 0.1922 0.2275);fill-opacity:1;"></path>
  <path d="M692.278 192.05C688.864 192.05 686.262 190.749 684.473 188.147H684.376V191.367H680.473V156.488H684.376V169.561H684.473C686.392 167.057 688.994 165.805 692.278 165.805C694.36 165.805 696.246 166.342 697.937 167.415C699.661 168.456 701.01 169.968 701.986 171.952C702.994 173.935 703.498 176.261 703.498 178.927C703.498 181.594 702.994 183.919 701.986 185.903C701.01 187.887 699.661 189.415 697.937 190.489C696.246 191.529 694.36 192.05 692.278 192.05ZM684.376 178.927C684.376 181.854 685.042 184.212 686.376 186.001C687.742 187.757 689.579 188.635 691.888 188.635C693.514 188.635 694.896 188.18 696.034 187.269C697.173 186.358 698.018 185.171 698.571 183.708C699.124 182.212 699.4 180.618 699.4 178.927C699.4 177.236 699.124 175.659 698.571 174.195C698.018 172.7 697.173 171.496 696.034 170.586C694.896 169.675 693.514 169.22 691.888 169.22C689.579 169.22 687.742 170.114 686.376 171.903C685.042 173.659 684.376 176 684.376 178.927Z" fill="#1E313A" style="fill:#1E313A;fill:color(display-p3 0.1176 0.1922 0.2275);fill-opacity:1;"></path>
  <path d="M724.452 174.976C724.452 173.252 724.013 171.87 723.135 170.83C722.257 169.756 720.891 169.22 719.037 169.22C716.858 169.22 715.086 169.838 713.72 171.073C712.387 172.309 711.72 173.903 711.72 175.854V191.367H707.817V166.488H711.72V169.464H711.818C712.598 168.423 713.671 167.561 715.037 166.878C716.403 166.163 718.062 165.805 720.013 165.805C722.452 165.805 724.452 166.504 726.013 167.903C727.574 169.269 728.354 171.301 728.354 174V191.367H724.452V174.976Z" fill="#1E313A" style="fill:#1E313A;fill:color(display-p3 0.1176 0.1922 0.2275);fill-opacity:1;"></path>
  <path d="M733.828 166.488H737.73V191.367H733.828V166.488ZM736.657 156H741.291L736.852 162.537H733.682L736.657 156Z" fill="#1E313A" style="fill:#1E313A;fill:color(display-p3 0.1176 0.1922 0.2275);fill-opacity:1;"></path>
  <path d="M753.836 156.488H757.738V177.366L769.348 166.488H774.031L764.226 175.513L775.056 191.367H770.422L761.592 177.952L757.738 181.464V191.367H753.836V156.488Z" fill="#1E313A" style="fill:#1E313A;fill:color(display-p3 0.1176 0.1922 0.2275);fill-opacity:1;"></path>
  <path d="M777.274 156.488H781.176V191.367H777.274V156.488Z" fill="#1E313A" style="fill:#1E313A;fill:color(display-p3 0.1176 0.1922 0.2275);fill-opacity:1;"></path>
  <path d="M786.849 166.488H790.752V191.367H786.849V166.488ZM786.459 156.976H791.142V161.659H786.459V156.976Z" fill="#1E313A" style="fill:#1E313A;fill:color(display-p3 0.1176 0.1922 0.2275);fill-opacity:1;"></path>
  <path d="M813.059 174.976C813.059 173.252 812.62 171.87 811.742 170.83C810.864 169.756 809.498 169.22 807.644 169.22C805.465 169.22 803.693 169.838 802.327 171.073C800.994 172.309 800.327 173.903 800.327 175.854V191.367H796.424V166.488H800.327V169.464H800.424C801.205 168.423 802.278 167.561 803.644 166.878C805.01 166.163 806.669 165.805 808.62 165.805C811.059 165.805 813.059 166.504 814.62 167.903C816.181 169.269 816.961 171.301 816.961 174V191.367H813.059V174.976Z" fill="#1E313A" style="fill:#1E313A;fill:color(display-p3 0.1176 0.1922 0.2275);fill-opacity:1;"></path>
  <path d="M822.435 166.488H826.337V191.367H822.435V166.488ZM822.045 156.976H826.728V161.659H822.045V156.976Z" fill="#1E313A" style="fill:#1E313A;fill:color(display-p3 0.1176 0.1922 0.2275);fill-opacity:1;"></path>
  <path d="M832.01 156.488H835.913V177.366L847.523 166.488H852.206L842.401 175.513L853.23 191.367H848.596L839.766 177.952L835.913 181.464V191.367H832.01V156.488Z" fill="#1E313A" style="fill:#1E313A;fill:color(display-p3 0.1176 0.1922 0.2275);fill-opacity:1;"></path>
  <path d="M861.707 192.05C859.203 192.05 857.203 191.399 855.707 190.098C854.243 188.797 853.512 187.09 853.512 184.976C853.512 183.155 853.934 181.692 854.78 180.586C855.626 179.48 856.796 178.635 858.292 178.049C859.788 177.464 861.74 176.96 864.146 176.537C865.772 176.244 866.992 175.968 867.805 175.708C868.65 175.448 869.284 175.106 869.707 174.683C870.13 174.228 870.341 173.61 870.341 172.83C870.341 170.391 868.618 169.171 865.171 169.171C863.61 169.171 862.374 169.334 861.463 169.659C860.585 169.984 859.951 170.521 859.561 171.269C859.17 171.984 858.926 172.96 858.829 174.195H854.731C854.861 171.626 855.788 169.578 857.512 168.049C859.235 166.521 861.837 165.756 865.317 165.756C867.919 165.756 870.032 166.39 871.658 167.659C873.317 168.927 874.146 170.976 874.146 173.805V185.757C874.146 186.765 874.244 187.513 874.439 188.001C874.634 188.456 874.959 188.684 875.415 188.684L876 188.635V191.367C875.285 191.529 874.65 191.61 874.097 191.61C872.959 191.61 872.081 191.334 871.463 190.781C870.878 190.196 870.52 189.171 870.39 187.708H870.293C869.447 189.106 868.309 190.18 866.878 190.928C865.447 191.676 863.723 192.05 861.707 192.05ZM857.609 184.781C857.609 186.049 857.967 187.009 858.683 187.659C859.398 188.31 860.536 188.635 862.097 188.635C864.569 188.635 866.553 188.066 868.049 186.927C869.577 185.757 870.341 184.033 870.341 181.757V177.805C869.756 178.456 867.805 179.106 864.488 179.757C861.983 180.277 860.211 180.895 859.17 181.61C858.13 182.326 857.609 183.383 857.609 184.781Z" fill="#1E313A" style="fill:#1E313A;fill:color(display-p3 0.1176 0.1922 0.2275);fill-opacity:1;"></path>
</svg>
